<svg id="Layer_1" data-name="Layer 1" xmlns="http://www.w3.org/2000/svg" viewBox="0 0 439.93 434.6"><defs><style>.cls-1,.cls-2{fill:#fff;}.cls-1{opacity:0;}</style></defs><rect class="cls-1" x="74.49" y="71.83" width="290.95" height="290.95"/><path class="cls-2" d="M189,0V434.6c-1.61-.36-3-.72-4.64-1.07a268.42,268.42,0,0,1-57.29-21.24V263.61H65V364.45L48.54,349.82a213,213,0,0,1-39.44-73A229.19,229.19,0,0,1,3,251.48C1.78,243.8.89,236.13.35,228.28.18,224.53,0,221,0,217.21s.18-7.49.35-11.07A168,168,0,0,1,3,182.94a207.39,207.39,0,0,1,32.31-80.31,188.25,188.25,0,0,1,13.38-18L65.14,70V185.08h61.93V22.3A267.86,267.86,0,0,1,184.36,1.07C186,.71,187.39.35,189,0Zm66.56,1.07A267.47,267.47,0,0,1,312.85,22.3v163h61.93V70.14l16.43,14.63a216.22,216.22,0,0,1,39.61,73,194.25,194.25,0,0,1,6.07,25.34c1.26,7.67,2.15,15.34,2.69,23.2.18,3.75.35,7.32.35,11.07s-.17,7.5-.35,11.06a166.3,166.3,0,0,1-2.69,23.2A207.55,207.55,0,0,1,404.59,332a188,188,0,0,1-13.38,18l-16.43,14.63V263.79H312.85v148.5a268,268,0,0,1-57.29,21.24c-1.6.35-3,.71-4.63,1.07V0C252.53.35,254,.71,255.56,1.07Z"/></svg>